HIERARCHY
ROOT Hips
{
	OFFSET 0.00 86.18 0.00
	CHANNELS 6 Xposition Yposition Zposition Yrotation Xrotation Zrotation
	JOINT RightUpLeg
	{
		OFFSET -9.25 0.00 0.00
		CHANNELS 6 Xposition Yposition Zposition Yrotation Xrotation Zrotation
		JOINT RightLeg
		{
			OFFSET 0.00 -42.00 0.00
			CHANNELS 6 Xposition Yposition Zposition Yrotation Xrotation Zrotation
			JOINT RightFoot
			{
				OFFSET 0.00 -42.00 0.00
				CHANNELS 6 Xposition Yposition Zposition Yrotation Xrotation Zrotation
				End Site
				{
					OFFSET 0 -1.14 11.36
				}
			}
		}
	}
	JOINT LeftUpLeg
	{
		OFFSET 9.25 0.00 0.00
		CHANNELS 6 Xposition Yposition Zposition Yrotation Xrotation Zrotation
		JOINT LeftLeg
		{
			OFFSET 0.00 -42.00 0.00
			CHANNELS 6 Xposition Yposition Zposition Yrotation Xrotation Zrotation
			JOINT LeftFoot
			{
				OFFSET 0.00 -42.00 0.00
				CHANNELS 6 Xposition Yposition Zposition Yrotation Xrotation Zrotation
				End Site
				{
					OFFSET 0 -1.14 11.36
				}
			}
		}
	}
	JOINT Spine
	{
		OFFSET 0.00 10.46 0.00
		CHANNELS 6 Xposition Yposition Zposition Yrotation Xrotation Zrotation
		JOINT Spine1
		{
			OFFSET 0.00 9.75 0.00
			CHANNELS 6 Xposition Yposition Zposition Yrotation Xrotation Zrotation
			JOINT Spine2
			{
				OFFSET 0.00 10.15 0.00
				CHANNELS 6 Xposition Yposition Zposition Yrotation Xrotation Zrotation
				JOINT Spine3
				{
					OFFSET 0.00 9.75 0.00
					CHANNELS 6 Xposition Yposition Zposition Yrotation Xrotation Zrotation
			 		JOINT Neck
					{
						OFFSET 0.00 10.42 0.00
						CHANNELS 6 Xposition Yposition Zposition Yrotation Xrotation Zrotation
						JOINT Head
						{
							OFFSET 0.00 9.50 0.00
							CHANNELS 6 Xposition Yposition Zposition Yrotation Xrotation Zrotation
							End Site
							{
								OFFSET 0 16.00 0
							}
						}    
					} 
					JOINT RightShoulder
	 					{
						OFFSET -3.20 6.94 0.00
						CHANNELS 6 Xposition Yposition Zposition Yrotation Xrotation Zrotation
						JOINT RightArm
						{
							OFFSET -16.00 0.00 0.00
							CHANNELS 6 Xposition Yposition Zposition Yrotation Xrotation Zrotation
							JOINT RightForeArm
							{
								OFFSET -26.50 0.00 0.00
								CHANNELS 6 Xposition Yposition Zposition Yrotation Xrotation Zrotation
								JOINT RightHand
								{
									OFFSET -26.00 0.00 0.00
									CHANNELS 6 Xposition Yposition Zposition Yrotation Xrotation Zrotation
									End Site
									{
										OFFSET -17.50 0 0
									}
								}
							}
						}	
					}
					JOINT LeftShoulder
					{
						OFFSET 3.20 6.94 0.00
						CHANNELS 6 Xposition Yposition Zposition Yrotation Xrotation Zrotation
						JOINT LeftArm
						{
							OFFSET 16.00 0.00 0.00
							CHANNELS 6 Xposition Yposition Zposition Yrotation Xrotation Zrotation
							JOINT LeftForeArm
							{
								OFFSET 26.50 0.00 0.00
								CHANNELS 6 Xposition Yposition Zposition Yrotation Xrotation Zrotation
								JOINT LeftHand
								{
									OFFSET 26.00 0.00 0.00
									CHANNELS 6 Xposition Yposition Zposition Yrotation Xrotation Zrotation
									End Site
									{
										OFFSET 17.50 0 0
									}
								}
							}
						}
					}     			
				}
			}
		} 
	} 
}
MOTION
Frames: 16
Frame Time: 0.010
-3.19 81.59 56.37 63.85 -9.71 -5.73 -8.58 -0.40 -0.07 -8.32 -25.03 -12.49 0.18 -43.34 1.21 8.72 39.35 -0.09 1.30 -41.27 1.50 10.21 2.43 5.51 10.10 0.66 0.82 -7.79 -21.72 10.12 0.83 -41.54 0.73 16.39 58.68 -4.02 -0.38 -42.23 -0.53 13.97 -25.70 13.63 0.00 10.47 -0.10 1.02 34.99 -2.03 0.19 9.54 0.06 0.16 9.16 -0.54 0.16 10.21 0.26 0.05 13.57 -0.87 0.21 9.78 0.24 0.05 -1.26 0.10 0.11 10.38 0.18 0.05 -1.27 0.10 0.05 9.49 0.21 0.14 -23.57 1.89 -3.11 7.14 0.51 2.22 -3.59 6.01 -16.47 0.20 0.79 -7.01 16.25 72.33 -26.22 -0.14 0.05 89.26 -3.94 5.37 -25.54 -0.63 0.15 11.97 -25.05 9.07 3.48 6.70 -0.04 -13.05 0.02 13.24 15.73 -0.28 -0.34 -7.83 16.10 -79.71 26.31 0.46 -0.05 -51.52 1.88 11.88 25.92 1.40 0.19 -5.25 2.37 14.07 
-3.19 81.59 56.37 63.85 -9.71 -5.73 -8.58 -0.40 -0.07 -8.32 -25.03 -12.49 0.18 -43.34 1.21 8.72 39.35 -0.09 1.30 -41.27 1.50 10.21 2.43 5.51 10.10 0.66 0.82 -7.79 -21.72 10.12 0.83 -41.54 0.73 16.39 58.68 -4.02 -0.38 -42.23 -0.53 13.97 -25.70 13.63 0.00 10.48 -0.10 1.02 34.99 -2.03 0.17 9.55 0.05 0.16 9.16 -0.54 0.15 10.20 0.24 0.05 13.57 -0.87 0.19 9.78 0.22 0.05 -1.26 0.10 0.06 10.38 0.13 0.05 -1.27 0.10 0.03 9.50 0.19 0.14 -23.57 1.89 -3.14 7.14 0.49 2.22 -3.59 6.01 -16.47 0.20 0.79 -7.01 16.25 72.33 -26.22 -0.14 0.05 89.26 -3.94 5.37 -25.54 -0.63 0.15 11.97 -25.05 9.07 3.46 6.70 -0.06 -13.05 0.02 13.24 15.73 -0.28 -0.34 -7.83 16.10 -79.71 26.31 0.46 -0.05 -51.52 1.88 11.88 25.92 1.40 0.19 -5.25 2.37 14.07 
-3.22 81.69 56.40 63.85 -9.71 -5.73 -8.57 -0.41 -0.06 -8.31 -25.03 -12.49 0.20 -43.36 1.23 8.74 39.34 -0.07 1.20 -41.14 1.46 10.20 2.43 5.52 10.14 0.66 0.82 -7.78 -21.72 10.12 0.87 -41.52 0.73 16.38 58.68 -4.02 -0.41 -42.34 -0.45 13.97 -25.70 13.63 0.00 10.47 -0.10 1.02 35.00 -2.03 0.16 9.56 0.04 0.16 9.16 -0.54 0.13 10.20 0.23 0.05 13.57 -0.87 0.17 9.77 0.20 0.05 -1.26 0.10 0.02 10.37 0.11 0.05 -1.27 0.10 0.01 9.50 0.18 0.14 -23.57 1.89 -3.16 7.14 0.48 2.22 -3.59 6.01 -16.48 0.20 0.80 -7.01 16.25 72.33 -26.23 -0.15 0.06 89.26 -3.94 5.37 -25.55 -0.64 0.14 11.97 -25.05 9.07 3.43 6.69 -0.08 -13.05 0.02 13.24 15.72 -0.29 -0.35 -7.83 16.10 -79.71 26.30 0.47 -0.06 -51.52 1.88 11.88 25.91 1.45 0.20 -5.25 2.37 14.07 
-3.26 81.73 56.53 63.85 -9.71 -5.73 -8.57 -0.43 -0.05 -8.31 -25.02 -12.49 0.23 -43.34 1.20 8.81 39.33 -0.03 1.11 -40.99 1.38 10.17 2.41 5.56 10.22 0.68 0.81 -7.76 -21.73 10.12 0.93 -41.49 0.72 16.34 58.69 -4.04 -0.42 -42.42 -0.41 13.97 -25.70 13.63 -0.01 10.47 -0.11 1.02 35.00 -2.03 0.14 9.56 0.03 0.16 9.16 -0.54 0.13 10.20 0.22 0.05 13.57 -0.87 0.15 9.77 0.19 0.05 -1.26 0.10 -0.02 10.37 0.08 0.05 -1.27 0.10 -0.01 9.51 0.18 0.14 -23.57 1.89 -3.18 7.15 0.47 2.22 -3.59 6.01 -16.49 0.20 0.82 -7.01 16.25 72.33 -26.24 -0.16 0.08 89.25 -3.94 5.37 -25.56 -0.68 0.12 11.97 -25.05 9.06 3.42 6.68 -0.11 -13.05 0.02 13.24 15.70 -0.30 -0.38 -7.83 16.10 -79.71 26.28 0.49 -0.06 -51.53 1.87 11.89 25.90 1.54 0.23 -5.26 2.35 14.09 
-3.33 81.82 56.78 64.38 -9.70 -5.62 -8.64 -0.37 -0.03 -7.42 -24.49 -13.12 0.14 -43.01 0.85 11.69 37.98 2.41 0.52 -40.92 0.82 8.66 1.99 8.26 10.10 0.57 0.69 -6.19 -22.58 10.02 0.84 -41.59 0.62 14.28 60.01 -4.71 -0.39 -42.61 -0.11 13.48 -26.31 13.63 0.01 10.48 -0.11 1.00 35.20 -2.01 0.12 9.57 0.01 0.16 9.22 -0.54 0.10 10.19 0.19 0.05 13.63 -0.86 0.12 9.77 0.15 0.03 -1.26 0.11 -0.06 10.38 0.03 0.03 -1.27 0.11 -0.03 9.52 0.13 -0.28 -23.49 2.08 -3.20 7.13 0.40 2.36 -3.55 6.00 -16.45 0.17 0.73 -6.27 15.98 72.58 -26.24 -0.13 0.07 88.95 -4.10 4.85 -25.58 -0.62 0.15 12.09 -25.13 8.42 3.38 6.71 -0.11 -13.09 -0.09 13.17 15.75 -0.26 -0.33 -7.80 16.12 -79.61 26.30 0.45 -0.05 -52.17 1.27 12.72 25.94 1.33 0.23 -5.78 1.69 14.64 
-3.39 81.69 57.19 65.09 -9.75 -5.51 -8.69 -0.33 -0.03 -7.07 -23.98 -13.73 0.09 -42.82 0.65 14.11 37.57 4.67 0.31 -41.09 0.46 6.10 -0.44 9.30 10.00 0.48 0.62 -4.84 -23.26 9.96 0.72 -41.66 0.56 10.21 61.11 -7.12 -0.36 -42.65 0.04 13.85 -26.81 13.40 0.01 10.48 -0.12 0.85 35.43 -2.00 0.09 9.58 -0.01 0.12 9.27 -0.53 0.09 10.19 0.17 -0.01 13.69 -0.84 0.10 9.77 0.12 0.01 -1.26 0.11 -0.08 10.38 -0.02 0.01 -1.27 0.11 -0.05 9.53 0.08 -0.69 -23.42 2.27 -3.21 7.11 0.34 2.48 -3.55 6.01 -16.41 0.15 0.65 -5.62 15.70 72.70 -26.26 -0.11 0.06 88.67 -4.15 4.54 -25.61 -0.56 0.16 12.22 -25.28 7.90 3.36 6.74 -0.13 -13.10 -0.22 13.09 15.77 -0.24 -0.30 -7.65 16.19 -79.52 26.32 0.41 -0.04 -52.94 0.78 13.53 25.98 1.18 0.22 -6.45 1.09 15.08 
-3.49 81.50 57.70 65.78 -9.85 -5.35 -8.75 -0.29 -0.01 -7.33 -23.63 -14.15 0.11 -42.88 0.82 14.18 38.93 5.33 0.17 -41.20 0.53 5.53 -4.01 10.01 9.97 0.41 0.59 -3.99 -23.79 10.02 0.64 -41.71 0.51 6.83 62.10 -9.34 -0.34 -42.68 0.15 14.02 -27.22 13.14 0.01 10.49 -0.13 0.65 35.73 -2.05 0.06 9.61 -0.05 0.07 9.34 -0.53 0.07 10.18 0.15 -0.09 13.76 -0.85 0.09 9.77 0.10 -0.00 -1.27 0.12 -0.08 10.39 -0.07 -0.01 -1.28 0.12 -0.05 9.54 0.05 -1.05 -23.55 2.48 -3.20 7.10 0.29 2.61 -3.71 6.09 -16.37 0.13 0.59 -5.07 15.45 72.66 -26.28 -0.09 0.05 88.44 -4.12 4.40 -25.65 -0.50 0.14 12.31 -25.44 7.60 3.36 6.76 -0.13 -12.97 -0.55 13.08 15.79 -0.22 -0.27 -7.49 16.38 -79.48 26.34 0.38 -0.03 -53.82 0.40 14.32 26.00 1.07 0.21 -7.23 0.54 15.43 
-3.61 81.15 58.27 66.29 -9.98 -5.12 -8.80 -0.25 0.02 -8.15 -23.76 -14.41 0.06 -42.96 1.04 11.51 40.95 4.16 0.11 -41.29 0.75 7.87 -6.48 9.21 9.93 0.35 0.57 -3.50 -24.20 10.25 0.58 -41.75 0.48 4.89 63.09 -10.79 -0.28 -42.61 0.15 13.75 -27.57 12.95 0.02 10.50 -0.14 0.48 36.11 -2.22 0.05 9.64 -0.08 0.03 9.44 -0.56 0.07 10.18 0.13 -0.17 13.85 -0.91 0.09 9.77 0.08 -0.01 -1.29 0.13 -0.06 10.39 -0.11 -0.02 -1.30 0.13 -0.06 9.55 0.02 -1.31 -23.91 2.67 -3.19 7.09 0.26 2.82 -4.01 6.24 -16.34 0.13 0.54 -4.66 15.17 72.46 -26.30 -0.08 0.05 88.27 -4.10 4.36 -25.69 -0.44 0.13 12.30 -25.46 7.58 3.36 6.78 -0.12 -12.66 -1.14 13.12 15.81 -0.20 -0.24 -7.35 16.67 -79.48 26.35 0.35 -0.03 -54.80 0.14 15.08 26.02 0.97 0.20 -8.09 0.11 15.75 
-3.79 80.83 58.81 66.39 -10.15 -4.94 -8.80 -0.28 0.00 -9.21 -24.62 -14.40 -0.07 -42.77 0.87 9.61 42.32 3.23 -0.00 -41.28 0.60 10.33 -6.53 7.61 9.89 0.30 0.48 -3.06 -24.64 10.75 0.50 -41.79 0.41 4.11 64.14 -11.38 -0.24 -42.54 0.14 13.15 -27.78 12.60 0.04 10.51 -0.13 0.55 36.49 -2.38 0.08 9.66 -0.10 0.04 9.55 -0.60 0.08 10.18 0.12 -0.18 13.99 -0.97 0.08 9.77 0.07 -0.02 -1.31 0.13 -0.03 10.39 -0.14 -0.02 -1.33 0.13 -0.05 9.56 -0.01 -1.44 -24.34 2.82 -3.18 7.09 0.23 3.13 -4.22 6.39 -16.31 0.13 0.49 -4.31 14.76 72.18 -26.32 -0.08 0.06 88.17 -4.19 4.34 -25.72 -0.38 0.11 12.16 -25.25 7.80 3.36 6.80 -0.10 -12.34 -1.61 13.13 15.84 -0.18 -0.20 -7.05 16.80 -79.50 26.37 0.33 -0.02 -55.85 0.00 15.83 26.04 0.88 0.18 -8.94 -0.24 16.05 
-4.00 80.58 59.31 66.28 -10.16 -4.94 -8.71 -0.38 -0.06 -10.11 -26.09 -14.18 0.01 -42.60 0.60 9.79 43.91 3.23 -0.03 -41.25 0.54 11.19 -6.31 6.67 9.89 0.31 0.39 -2.83 -25.16 11.40 0.43 -41.82 0.36 4.02 65.06 -11.35 -0.24 -42.51 0.15 12.56 -27.83 12.17 0.03 10.51 -0.13 0.82 36.71 -2.37 0.12 9.68 -0.10 0.10 9.64 -0.61 0.08 10.18 0.11 -0.09 14.09 -0.98 0.08 9.77 0.06 -0.02 -1.33 0.14 -0.02 10.39 -0.16 -0.02 -1.35 0.14 -0.05 9.57 -0.04 -1.49 -24.74 2.89 -3.17 7.08 0.21 3.41 -4.14 6.32 -16.29 0.11 0.45 -3.82 14.13 72.03 -26.33 -0.08 0.07 88.15 -4.36 4.18 -25.76 -0.32 0.11 11.93 -24.84 8.15 3.36 6.81 -0.09 -12.21 -1.78 13.13 15.87 -0.17 -0.18 -6.65 16.68 -79.59 26.38 0.32 -0.00 -56.88 -0.09 16.62 26.05 0.79 0.17 -9.77 -0.57 16.34 
-4.22 80.38 59.75 66.26 -10.04 -4.84 -8.68 -0.41 -0.09 -11.53 -27.64 -13.50 0.08 -42.53 0.42 11.20 45.67 3.45 -0.10 -41.26 0.60 11.23 -6.63 6.22 9.90 0.32 0.33 -3.03 -25.67 11.91 0.41 -41.85 0.33 4.42 65.82 -11.06 -0.25 -42.50 0.19 12.11 -27.83 11.78 0.02 10.51 -0.15 0.99 36.87 -2.33 0.13 9.68 -0.09 0.14 9.69 -0.62 0.08 10.18 0.11 -0.02 14.17 -0.98 0.07 9.77 0.05 -0.02 -1.36 0.13 -0.02 10.39 -0.18 -0.02 -1.37 0.14 -0.05 9.57 -0.07 -1.56 -25.15 2.90 -3.17 7.06 0.19 3.66 -3.89 6.10 -16.26 0.09 0.40 -3.15 13.40 72.00 -26.34 -0.08 0.08 88.19 -4.54 3.79 -25.79 -0.27 0.11 11.63 -24.32 8.50 3.35 6.81 -0.08 -12.31 -1.86 13.07 15.90 -0.16 -0.17 -6.37 16.53 -79.73 26.39 0.30 -0.00 -57.87 -0.27 17.57 26.06 0.72 0.15 -10.50 -0.86 16.58 
-4.43 80.25 60.14 66.69 -9.99 -4.56 -8.75 -0.31 -0.04 -13.13 -28.38 -12.79 0.13 -42.53 0.44 12.93 46.96 3.72 -0.28 -41.25 0.80 10.62 -7.50 6.16 9.88 0.29 0.31 -3.90 -26.04 12.24 0.39 -41.87 0.28 5.01 66.51 -10.85 -0.25 -42.54 0.26 11.73 -27.80 11.46 0.03 10.50 -0.14 0.80 37.12 -2.40 0.11 9.69 -0.08 0.09 9.75 -0.62 0.07 10.18 0.10 -0.10 14.22 -0.99 0.06 9.77 0.05 -0.02 -1.38 0.13 -0.03 10.39 -0.19 -0.02 -1.39 0.14 -0.05 9.58 -0.07 -1.58 -25.62 2.92 -3.18 7.05 0.17 3.85 -3.67 5.93 -16.23 0.07 0.37 -2.32 12.76 71.91 -26.36 -0.08 0.08 88.26 -4.67 3.23 -25.82 -0.23 0.11 11.39 -23.79 8.70 3.34 6.82 -0.08 -12.49 -1.90 12.93 15.92 -0.15 -0.17 -6.29 16.40 -79.81 26.39 0.28 -0.00 -58.82 -0.57 18.64 26.07 0.65 0.15 -11.08 -1.11 16.81 
-4.62 80.13 60.54 67.41 -9.97 -4.21 -8.88 -0.15 -0.01 -14.50 -28.72 -12.20 0.11 -42.54 0.49 14.32 47.97 4.00 -0.51 -41.25 0.97 9.85 -8.50 5.98 9.83 0.24 0.32 -5.26 -26.30 12.55 0.38 -41.90 0.24 5.60 67.13 -10.89 -0.23 -42.58 0.33 11.52 -27.77 11.15 0.05 10.51 -0.14 0.38 37.41 -2.52 0.07 9.69 -0.08 -0.01 9.80 -0.63 0.05 10.18 0.10 -0.27 14.25 -1.01 0.05 9.76 0.04 -0.01 -1.40 0.14 -0.04 10.38 -0.20 -0.02 -1.41 0.14 -0.05 9.58 -0.07 -1.54 -25.99 2.95 -3.19 7.04 0.16 3.93 -3.66 5.89 -16.21 0.07 0.33 -1.46 12.30 71.74 -26.37 -0.08 0.07 88.30 -4.68 2.65 -25.84 -0.21 0.10 11.25 -23.34 8.69 3.33 6.83 -0.08 -12.63 -1.95 12.78 15.93 -0.14 -0.17 -6.33 16.27 -79.77 26.40 0.25 -0.02 -59.73 -0.88 19.62 26.07 0.59 0.14 -11.50 -1.30 17.05 
-4.83 80.03 60.95 67.92 -9.97 -3.98 -8.95 -0.10 -0.04 -15.94 -29.23 -11.51 0.10 -42.51 0.44 16.95 48.83 5.35 -0.76 -41.23 1.07 8.60 -9.20 5.48 9.75 0.20 0.32 -6.44 -26.48 13.07 0.36 -41.92 0.22 5.77 67.64 -11.29 -0.17 -42.60 0.38 11.23 -27.67 10.87 0.05 10.51 -0.14 0.14 37.66 -2.59 0.03 9.70 -0.08 -0.06 9.86 -0.63 0.04 10.18 0.09 -0.36 14.29 -1.02 0.04 9.76 0.04 -0.01 -1.40 0.14 -0.05 10.37 -0.19 -0.02 -1.42 0.14 -0.05 9.58 -0.07 -1.56 -26.15 3.01 -3.20 7.04 0.15 3.99 -3.68 5.95 -16.18 0.07 0.30 -0.75 11.87 71.54 -26.38 -0.08 0.07 88.35 -4.53 2.18 -25.86 -0.19 0.10 11.20 -23.04 8.57 3.31 6.84 -0.08 -12.71 -1.97 12.69 15.93 -0.13 -0.16 -6.40 16.13 -79.71 26.41 0.23 -0.02 -60.67 -1.08 20.45 26.07 0.55 0.13 -11.81 -1.39 17.30 
-5.05 79.92 61.40 68.02 -9.99 -3.89 -9.04 -0.09 -0.02 -16.75 -29.60 -10.76 0.04 -42.46 0.42 20.24 49.42 7.54 -0.92 -41.22 1.07 6.77 -9.68 4.89 9.68 0.19 0.26 -7.02 -26.65 13.72 0.33 -41.93 0.20 5.34 68.02 -12.02 -0.06 -42.59 0.39 10.97 -27.46 10.57 0.03 10.51 -0.13 0.22 37.85 -2.61 0.00 9.71 -0.08 -0.04 9.92 -0.64 0.03 10.17 0.08 -0.33 14.36 -1.03 0.03 9.76 0.04 -0.02 -1.41 0.14 -0.06 10.37 -0.17 -0.02 -1.42 0.14 -0.05 9.58 -0.08 -1.68 -26.15 3.13 -3.20 7.03 0.14 4.06 -3.68 6.02 -16.16 0.06 0.27 -0.24 11.41 71.40 -26.39 -0.08 0.06 88.38 -4.30 1.84 -25.88 -0.18 0.10 11.23 -22.89 8.40 3.31 6.85 -0.07 -12.67 -2.02 12.68 15.93 -0.12 -0.16 -6.59 15.94 -79.64 26.42 0.22 -0.03 -61.55 -1.18 21.16 26.07 0.51 0.12 -12.09 -1.45 17.54 
-5.28 79.80 61.86 68.25 -9.90 -3.87 -9.07 -0.10 -0.04 -16.67 -29.96 -10.58 0.04 -42.42 0.38 22.47 50.00 9.54 -0.89 -41.20 1.06 5.12 -10.15 4.56 9.62 0.18 0.24 -7.34 -27.00 14.27 0.30 -41.94 0.20 4.52 68.35 -12.77 0.08 -42.55 0.39 10.63 -27.12 10.22 0.03 10.51 -0.14 0.23 37.96 -2.58 -0.01 9.73 -0.08 -0.04 9.95 -0.63 0.02 10.17 0.08 -0.33 14.39 -1.02 0.03 9.76 0.03 -0.02 -1.41 0.15 -0.06 10.37 -0.16 -0.02 -1.42 0.15 -0.05 9.57 -0.08 -1.77 -26.14 3.22 -3.20 7.03 0.13 4.21 -3.71 6.09 -16.14 0.06 0.24 0.05 11.01 71.30 -26.39 -0.09 0.06 88.40 -4.09 1.63 -25.89 -0.16 0.09 11.29 -22.83 8.24 3.30 6.86 -0.05 -12.55 -2.09 12.73 15.94 -0.12 -0.14 -6.87 15.77 -79.62 26.43 0.21 -0.04 -62.34 -1.12 21.79 26.07 0.47 0.11 -12.38 -1.51 17.73 
